<?xml version="1.0" encoding="iso-8859-1"?>
<!-- Uploaded to: SVG Repo, www.svgrepo.com, Generator: SVG Repo Mixer Tools -->
<svg version="1.1" id="Layer_1" xmlns="http://www.w3.org/2000/svg" xmlns:xlink="http://www.w3.org/1999/xlink" 
	 viewBox="0 0 512 512" xml:space="preserve">
<rect y="347.306" style="fill:#FFFFFF;" width="512" height="53.26"/>
<polygon style="fill:#C9C9C9;" points="154.884,346.853 101.916,400.177 101.237,400.557 0,400.557 0,339.762 118.632,339.762 "/>
<path style="fill:#00ABE9;" d="M512,347.314H0V182.91c0-13.561,5.802-26.063,15.357-34.732c4.893-4.455,10.775-7.886,17.383-9.935
	l77.05-23.899c23.001-7.137,48.028-0.921,65.101,16.174l5.698,5.203l36.113,32.948l10.142,9.244l12.732,11.616l21.919,20.008
	c4.444,2.97,8.956,5.802,13.538,8.507c5.157,3.062,10.407,5.952,15.737,8.669c9.544,4.893,19.34,9.244,29.344,13.043
	c5.963,2.279,11.996,4.352,18.097,6.228c0.253,0.081,0.495,0.15,0.748,0.23c15.564,4.743,31.543,8.185,47.787,10.292
	c12.364,1.589,24.889,2.406,37.495,2.406c24.233,0,46.175,9.9,62.05,25.891C502.18,300.805,512,322.897,512,347.314z"/>
<path style="fill:#009AE5;" d="M300.27,347.314H0V182.91c0-13.561,5.802-26.063,15.357-34.732
	C22.541,189.391,65.377,347.314,300.27,347.314z"/>
<g>
	<polygon style="fill:#0081D1;" points="239.578,189.529 81.793,347.314 38.059,347.314 216.703,168.669 226.846,177.914 	"/>
	<path style="fill:#0081D1;" d="M512,347.308H386.749v-90.807c12.364,1.589,24.889,2.406,37.495,2.406
		c24.233,0,46.175,9.9,62.05,25.891C502.18,300.799,512,322.891,512,347.308z"/>
</g>
<path style="fill:#57555C;" d="M226.846,177.914l-168.157,169.4H0V317.59l180.59-181.868l2.187-2.21
	c6.09-6.136,14.056-9.198,22.034-9.198s15.944,3.062,22.034,9.198C239.014,145.772,239.014,165.653,226.846,177.914z"/>
<path style="fill:#787780;" d="M67.416,292.966c-2.209,0-4.419-0.843-6.105-2.528c-3.372-3.373-3.372-8.839,0-12.211l89.489-89.489
	c3.372-3.371,8.839-3.371,12.21,0c3.372,3.373,3.372,8.839,0,12.211l-89.489,89.489C71.835,292.123,69.625,292.966,67.416,292.966z"
	/>
<g>
	<path style="fill:#0081D1;" d="M290.772,226.713l-33.903,34.145c-1.681,1.704-3.903,2.556-6.124,2.556
		c-2.199,0-4.398-0.84-6.09-2.51c-3.385-3.362-3.396-8.83-0.035-12.214l30.415-30.645
		C280.193,221.107,285.442,223.996,290.772,226.713z"/>
	<path style="fill:#0081D1;" d="M338.214,245.984c-0.115,0.15-0.253,0.299-0.403,0.449l-37.357,37.633
		c-1.681,1.704-3.903,2.556-6.124,2.556c-2.199,0-4.398-0.829-6.078-2.498c-3.385-3.362-3.408-8.83-0.046-12.214l31.911-32.153
		C326.08,242.036,332.112,244.108,338.214,245.984z"/>
</g>
</svg>